<svg width="19" height="36" viewBox="0 0 19 36" fill="none" xmlns="http://www.w3.org/2000/svg">
<path d="M15.5752 35.5C15.2017 35.5013 14.8327 35.4188 14.4952 35.2588C14.1578 35.0987 13.8605 34.865 13.6252 34.575L1.55017 19.575C1.18246 19.1277 0.981445 18.5665 0.981445 17.9875C0.981445 17.4084 1.18246 16.8473 1.55017 16.4L14.0502 1.39999C14.4745 0.889446 15.0843 0.568385 15.7454 0.507435C16.4064 0.446486 17.0646 0.650641 17.5752 1.07499C18.0857 1.49933 18.4068 2.10911 18.4677 2.77018C18.5287 3.43124 18.3245 4.08944 17.9002 4.59999L6.72516 18L17.5252 31.4C17.8309 31.7669 18.0251 32.2138 18.0848 32.6877C18.1445 33.1615 18.0672 33.6426 17.862 34.0739C17.6569 34.5052 17.3325 34.8688 16.9272 35.1215C16.5219 35.3742 16.0527 35.5056 15.5752 35.5Z" fill="#292929"/>
</svg>
